{
  "accessors": [
    {
      "bufferView": 0,
      "componentType": 5126,
      "count": 384,
      "max": [
        0.5,
        0.12549999356269836,
        0.23499532043933868
      ],
      "min": [
        -0.5,
        -0.12550000846385956,
        0.0
      ],
      "name": "Crate-03_case/POSITION",
      "type": "VEC3"
    },
    {
      "bufferView": 0,
      "byteOffset": 12,
      "componentType": 5126,
      "count": 384,
      "name": "Crate-03_case/NORMAL",
      "type": "VEC3"
    },
    {
      "bufferView": 0,
      "byteOffset": 24,
      "componentType": 5126,
      "count": 384,
      "name": "Crate-03_case/TEXCOORD_0",
      "type": "VEC2"
    },
    {
      "bufferView": 0,
      "byteOffset": 32,
      "componentType": 5126,
      "count": 384,
      "name": "Crate-03_case/TEXCOORD_1",
      "type": "VEC2"
    },
    {
      "bufferView": 1,
      "componentType": 5125,
      "count": 576,
      "name": "Crate-03_case/INDICES",
      "type": "SCALAR"
    },
    {
      "bufferView": 2,
      "componentType": 5126,
      "count": 96,
      "max": [
        0.5,
        0.125,
        0.24000000953674316
      ],
      "min": [
        -0.5,
        -0.125,
        0.22999995946884155
      ],
      "name": "Crate-03_cover/POSITION",
      "type": "VEC3"
    },
    {
      "bufferView": 2,
      "byteOffset": 12,
      "componentType": 5126,
      "count": 96,
      "name": "Crate-03_cover/NORMAL",
      "type": "VEC3"
    },
    {
      "bufferView": 2,
      "byteOffset": 24,
      "componentType": 5126,
      "count": 96,
      "name": "Crate-03_cover/TEXCOORD_0",
      "type": "VEC2"
    },
    {
      "bufferView": 2,
      "byteOffset": 32,
      "componentType": 5126,
      "count": 96,
      "name": "Crate-03_cover/TEXCOORD_1",
      "type": "VEC2"
    },
    {
      "bufferView": 3,
      "componentType": 5125,
      "count": 144,
      "name": "Crate-03_cover/INDICES",
      "type": "SCALAR"
    }
  ],
  "asset": {
    "copyright": "Copyright (c) 2018-2020 Chukong Technologies Inc.",
    "generator": "FBX-glTF-conv",
    "version": "2.0"
  },
  "bufferViews": [
    {
      "buffer": 0,
      "byteLength": 15360,
      "byteStride": 40,
      "name": "Crate-03_case",
      "target": 34962
    },
    {
      "buffer": 0,
      "byteLength": 2304,
      "byteOffset": 15360
    },
    {
      "buffer": 0,
      "byteLength": 3840,
      "byteOffset": 17664,
      "byteStride": 40,
      "name": "Crate-03_cover",
      "target": 34962
    },
    {
      "buffer": 0,
      "byteLength": 576,
      "byteOffset": 21504
    }
  ],
  "buffers": [
    {
      "byteLength": 22080,
      "uri": "out.bin"
    }
  ],
  "images": [
    {
      "extras": {
        "FBX-glTF-conv": {
          "fileName": "/Users/shashankchaurasia/CocosWorkspace/Sumo/assets/Free Wooden Crates/diffuse.tga",
          "relativeFileName": "diffuse.tga"
        }
      },
      "name": "Map #1",
      "uri": "data:image/png;base64,"
    }
  ],
  "materials": [
    {
      "name": "01 - Default",
      "pbrMetallicRoughness": {
        "baseColorTexture": {
          "index": 0
        },
        "metallicFactor": 0.4000000059604645,
        "roughnessFactor": 0.7071067690849304
      }
    }
  ],
  "meshes": [
    {
      "name": "Crate-03_case",
      "primitives": [
        {
          "attributes": {
            "NORMAL": 1,
            "POSITION": 0,
            "TEXCOORD_0": 2,
            "TEXCOORD_1": 3
          },
          "indices": 4,
          "material": 0
        }
      ]
    },
    {
      "name": "Crate-03_cover",
      "primitives": [
        {
          "attributes": {
            "NORMAL": 6,
            "POSITION": 5,
            "TEXCOORD_0": 7,
            "TEXCOORD_1": 8
          },
          "indices": 9,
          "material": 0
        }
      ]
    }
  ],
  "nodes": [
    {
      "mesh": 0,
      "name": "Crate-03_case",
      "rotation": [
        -0.7071067690849304,
        -0.0,
        0.0,
        0.7071067690849304
      ]
    },
    {
      "mesh": 1,
      "name": "Crate-03_cover",
      "rotation": [
        -0.7071067690849304,
        -0.0,
        0.0,
        0.7071067690849304
      ]
    }
  ],
  "samplers": [
    {}
  ],
  "scenes": [
    {
      "nodes": [
        0,
        1
      ]
    }
  ],
  "textures": [
    {
      "name": "Map #1",
      "sampler": 0,
      "source": 0
    }
  ]
}