{
  "accessors": [
    {
      "bufferView": 0,
      "componentType": 5126,
      "count": 120,
      "max": [
        0.09481584280729294,
        0.09027539938688278,
        0.09671314805746078
      ],
      "min": [
        -0.09808492660522461,
        -0.08970265835523605,
        -0.09301894158124924
      ],
      "name": "EA03_Prop_Container_Bag_01d.042/POSITION",
      "type": "VEC3"
    },
    {
      "bufferView": 0,
      "byteOffset": 12,
      "componentType": 5126,
      "count": 120,
      "name": "EA03_Prop_Container_Bag_01d.042/NORMAL",
      "type": "VEC3"
    },
    {
      "bufferView": 0,
      "byteOffset": 24,
      "componentType": 5126,
      "count": 120,
      "name": "EA03_Prop_Container_Bag_01d.042/TEXCOORD_0",
      "type": "VEC2"
    },
    {
      "bufferView": 1,
      "componentType": 5125,
      "count": 120,
      "name": "EA03_Prop_Container_Bag_01d.042/INDICES",
      "type": "SCALAR"
    },
    {
      "bufferView": 2,
      "componentType": 5126,
      "count": 144,
      "max": [
        0.09481584280729294,
        0.09262340515851974,
        0.09119810909032822
      ],
      "min": [
        -0.09808492660522461,
        -0.08970265835523605,
        -0.09301894158124924
      ],
      "name": "EA03_Prop_Container_Bag_01d.043/POSITION",
      "type": "VEC3"
    },
    {
      "bufferView": 2,
      "byteOffset": 12,
      "componentType": 5126,
      "count": 144,
      "name": "EA03_Prop_Container_Bag_01d.043/NORMAL",
      "type": "VEC3"
    },
    {
      "bufferView": 2,
      "byteOffset": 24,
      "componentType": 5126,
      "count": 144,
      "name": "EA03_Prop_Container_Bag_01d.043/TEXCOORD_0",
      "type": "VEC2"
    },
    {
      "bufferView": 3,
      "componentType": 5125,
      "count": 144,
      "name": "EA03_Prop_Container_Bag_01d.043/INDICES",
      "type": "SCALAR"
    },
    {
      "bufferView": 4,
      "componentType": 5126,
      "count": 174,
      "max": [
        0.09481584280729294,
        0.09262340515851974,
        0.09119810909032822
      ],
      "min": [
        -0.09808492660522461,
        -0.08970265835523605,
        -0.09301894158124924
      ],
      "name": "EA03_Prop_Container_Bag_01d.039/POSITION",
      "type": "VEC3"
    },
    {
      "bufferView": 4,
      "byteOffset": 12,
      "componentType": 5126,
      "count": 174,
      "name": "EA03_Prop_Container_Bag_01d.039/NORMAL",
      "type": "VEC3"
    },
    {
      "bufferView": 4,
      "byteOffset": 24,
      "componentType": 5126,
      "count": 174,
      "name": "EA03_Prop_Container_Bag_01d.039/TEXCOORD_0",
      "type": "VEC2"
    },
    {
      "bufferView": 5,
      "componentType": 5125,
      "count": 174,
      "name": "EA03_Prop_Container_Bag_01d.039/INDICES",
      "type": "SCALAR"
    }
  ],
  "asset": {
    "copyright": "Copyright (c) 2018-2020 Chukong Technologies Inc.",
    "generator": "FBX-glTF-conv",
    "version": "2.0"
  },
  "bufferViews": [
    {
      "buffer": 0,
      "byteLength": 3840,
      "byteStride": 32,
      "name": "EA03_Prop_Container_Bag_01d.042",
      "target": 34962
    },
    {
      "buffer": 0,
      "byteLength": 480,
      "byteOffset": 3840
    },
    {
      "buffer": 0,
      "byteLength": 4608,
      "byteOffset": 4320,
      "byteStride": 32,
      "name": "EA03_Prop_Container_Bag_01d.043",
      "target": 34962
    },
    {
      "buffer": 0,
      "byteLength": 576,
      "byteOffset": 8928
    },
    {
      "buffer": 0,
      "byteLength": 5568,
      "byteOffset": 9504,
      "byteStride": 32,
      "name": "EA03_Prop_Container_Bag_01d.039",
      "target": 34962
    },
    {
      "buffer": 0,
      "byteLength": 696,
      "byteOffset": 15072
    }
  ],
  "buffers": [
    {
      "byteLength": 15768,
      "uri": "out.bin"
    }
  ],
  "materials": [
    {
      "name": "EA02_LPNP-Slavika_Colorsheet_v1.png.001",
      "pbrMetallicRoughness": {
        "baseColorFactor": [
          0.800000011920929,
          0.800000011920929,
          0.800000011920929,
          1.0
        ],
        "metallicFactor": 0.4000000059604645,
        "roughnessFactor": 0.30151134729385376
      }
    }
  ],
  "meshes": [
    {
      "name": "EA03_Prop_Container_Bag_01d.042",
      "primitives": [
        {
          "attributes": {
            "NORMAL": 1,
            "POSITION": 0,
            "TEXCOORD_0": 2
          },
          "indices": 3,
          "material": 0
        }
      ]
    },
    {
      "name": "EA03_Prop_Container_Bag_01d.043",
      "primitives": [
        {
          "attributes": {
            "NORMAL": 5,
            "POSITION": 4,
            "TEXCOORD_0": 6
          },
          "indices": 7,
          "material": 0
        }
      ]
    },
    {
      "name": "EA03_Prop_Container_Bag_01d.039",
      "primitives": [
        {
          "attributes": {
            "NORMAL": 9,
            "POSITION": 8,
            "TEXCOORD_0": 10
          },
          "indices": 11,
          "material": 0
        }
      ]
    }
  ],
  "nodes": [
    {
      "mesh": 0,
      "name": "EA03_Items_House_Apple_01a_LOD2"
    },
    {
      "mesh": 1,
      "name": "EA03_Items_House_Apple_01a_LOD1"
    },
    {
      "mesh": 2,
      "name": "EA03_Items_House_Apple_01a_LOD0"
    }
  ],
  "scenes": [
    {
      "name": "Scene",
      "nodes": [
        0,
        1,
        2
      ]
    }
  ]
}