{
  "accessors": [
    {
      "bufferView": 0,
      "componentType": 5126,
      "count": 534,
      "max": [
        0.8283905982971191,
        0.5354739427566528,
        -1.6689300537109375e-05
      ],
      "min": [
        -0.7406601905822754,
        -0.5693632364273071,
        -0.22157320380210876
      ],
      "name": "EA03_Items_House_Shelf_01d.005/POSITION",
      "type": "VEC3"
    },
    {
      "bufferView": 0,
      "byteOffset": 12,
      "componentType": 5126,
      "count": 534,
      "name": "EA03_Items_House_Shelf_01d.005/NORMAL",
      "type": "VEC3"
    },
    {
      "bufferView": 0,
      "byteOffset": 24,
      "componentType": 5126,
      "count": 534,
      "name": "EA03_Items_House_Shelf_01d.005/TEXCOORD_0",
      "type": "VEC2"
    },
    {
      "bufferView": 0,
      "byteOffset": 32,
      "componentType": 5126,
      "count": 534,
      "name": "EA03_Items_House_Shelf_01d.005/TEXCOORD_1",
      "type": "VEC2"
    },
    {
      "bufferView": 0,
      "byteOffset": 40,
      "componentType": 5126,
      "count": 534,
      "name": "EA03_Items_House_Shelf_01d.005/TEXCOORD_2",
      "type": "VEC2"
    },
    {
      "bufferView": 0,
      "byteOffset": 48,
      "componentType": 5126,
      "count": 534,
      "name": "EA03_Items_House_Shelf_01d.005/TEXCOORD_3",
      "type": "VEC2"
    },
    {
      "bufferView": 0,
      "byteOffset": 56,
      "componentType": 5126,
      "count": 534,
      "name": "EA03_Items_House_Shelf_01d.005/TEXCOORD_4",
      "type": "VEC2"
    },
    {
      "bufferView": 0,
      "byteOffset": 64,
      "componentType": 5126,
      "count": 534,
      "name": "EA03_Items_House_Shelf_01d.005/TEXCOORD_5",
      "type": "VEC2"
    },
    {
      "bufferView": 0,
      "byteOffset": 72,
      "componentType": 5126,
      "count": 534,
      "name": "EA03_Items_House_Shelf_01d.005/TEXCOORD_6",
      "type": "VEC2"
    },
    {
      "bufferView": 0,
      "byteOffset": 80,
      "componentType": 5126,
      "count": 534,
      "name": "EA03_Items_House_Shelf_01d.005/COLOR_0",
      "type": "VEC4"
    },
    {
      "bufferView": 0,
      "byteOffset": 96,
      "componentType": 5126,
      "count": 534,
      "name": "EA03_Items_House_Shelf_01d.005/COLOR_1",
      "type": "VEC4"
    },
    {
      "bufferView": 0,
      "byteOffset": 112,
      "componentType": 5126,
      "count": 534,
      "name": "EA03_Items_House_Shelf_01d.005/COLOR_2",
      "type": "VEC4"
    },
    {
      "bufferView": 0,
      "byteOffset": 128,
      "componentType": 5126,
      "count": 534,
      "name": "EA03_Items_House_Shelf_01d.005/COLOR_3",
      "type": "VEC4"
    },
    {
      "bufferView": 1,
      "componentType": 5125,
      "count": 654,
      "name": "EA03_Items_House_Shelf_01d.005/INDICES",
      "type": "SCALAR"
    },
    {
      "bufferView": 2,
      "componentType": 5126,
      "count": 866,
      "max": [
        0.8283905982971191,
        0.5344986915588379,
        -1.6689300537109375e-05
      ],
      "min": [
        -0.7406601905822754,
        -0.574617326259613,
        -0.22703425586223602
      ],
      "name": "EA03_Items_House_Shelf_01d.006/POSITION",
      "type": "VEC3"
    },
    {
      "bufferView": 2,
      "byteOffset": 12,
      "componentType": 5126,
      "count": 866,
      "name": "EA03_Items_House_Shelf_01d.006/NORMAL",
      "type": "VEC3"
    },
    {
      "bufferView": 2,
      "byteOffset": 24,
      "componentType": 5126,
      "count": 866,
      "name": "EA03_Items_House_Shelf_01d.006/TEXCOORD_0",
      "type": "VEC2"
    },
    {
      "bufferView": 2,
      "byteOffset": 32,
      "componentType": 5126,
      "count": 866,
      "name": "EA03_Items_House_Shelf_01d.006/TEXCOORD_1",
      "type": "VEC2"
    },
    {
      "bufferView": 2,
      "byteOffset": 40,
      "componentType": 5126,
      "count": 866,
      "name": "EA03_Items_House_Shelf_01d.006/TEXCOORD_2",
      "type": "VEC2"
    },
    {
      "bufferView": 2,
      "byteOffset": 48,
      "componentType": 5126,
      "count": 866,
      "name": "EA03_Items_House_Shelf_01d.006/TEXCOORD_3",
      "type": "VEC2"
    },
    {
      "bufferView": 2,
      "byteOffset": 56,
      "componentType": 5126,
      "count": 866,
      "name": "EA03_Items_House_Shelf_01d.006/TEXCOORD_4",
      "type": "VEC2"
    },
    {
      "bufferView": 2,
      "byteOffset": 64,
      "componentType": 5126,
      "count": 866,
      "name": "EA03_Items_House_Shelf_01d.006/TEXCOORD_5",
      "type": "VEC2"
    },
    {
      "bufferView": 2,
      "byteOffset": 72,
      "componentType": 5126,
      "count": 866,
      "name": "EA03_Items_House_Shelf_01d.006/TEXCOORD_6",
      "type": "VEC2"
    },
    {
      "bufferView": 2,
      "byteOffset": 80,
      "componentType": 5126,
      "count": 866,
      "name": "EA03_Items_House_Shelf_01d.006/COLOR_0",
      "type": "VEC4"
    },
    {
      "bufferView": 2,
      "byteOffset": 96,
      "componentType": 5126,
      "count": 866,
      "name": "EA03_Items_House_Shelf_01d.006/COLOR_1",
      "type": "VEC4"
    },
    {
      "bufferView": 2,
      "byteOffset": 112,
      "componentType": 5126,
      "count": 866,
      "name": "EA03_Items_House_Shelf_01d.006/COLOR_2",
      "type": "VEC4"
    },
    {
      "bufferView": 2,
      "byteOffset": 128,
      "componentType": 5126,
      "count": 866,
      "name": "EA03_Items_House_Shelf_01d.006/COLOR_3",
      "type": "VEC4"
    },
    {
      "bufferView": 3,
      "componentType": 5125,
      "count": 1170,
      "name": "EA03_Items_House_Shelf_01d.006/INDICES",
      "type": "SCALAR"
    },
    {
      "bufferView": 4,
      "componentType": 5126,
      "count": 1164,
      "max": [
        0.8283905982971191,
        0.5344986915588379,
        -1.6689300537109375e-05
      ],
      "min": [
        -0.7406601905822754,
        -0.574617326259613,
        -0.22840410470962524
      ],
      "name": "EA03_Items_House_Shelf_01d.002/POSITION",
      "type": "VEC3"
    },
    {
      "bufferView": 4,
      "byteOffset": 12,
      "componentType": 5126,
      "count": 1164,
      "name": "EA03_Items_House_Shelf_01d.002/NORMAL",
      "type": "VEC3"
    },
    {
      "bufferView": 4,
      "byteOffset": 24,
      "componentType": 5126,
      "count": 1164,
      "name": "EA03_Items_House_Shelf_01d.002/TEXCOORD_0",
      "type": "VEC2"
    },
    {
      "bufferView": 4,
      "byteOffset": 32,
      "componentType": 5126,
      "count": 1164,
      "name": "EA03_Items_House_Shelf_01d.002/TEXCOORD_1",
      "type": "VEC2"
    },
    {
      "bufferView": 4,
      "byteOffset": 40,
      "componentType": 5126,
      "count": 1164,
      "name": "EA03_Items_House_Shelf_01d.002/TEXCOORD_2",
      "type": "VEC2"
    },
    {
      "bufferView": 4,
      "byteOffset": 48,
      "componentType": 5126,
      "count": 1164,
      "name": "EA03_Items_House_Shelf_01d.002/TEXCOORD_3",
      "type": "VEC2"
    },
    {
      "bufferView": 4,
      "byteOffset": 56,
      "componentType": 5126,
      "count": 1164,
      "name": "EA03_Items_House_Shelf_01d.002/TEXCOORD_4",
      "type": "VEC2"
    },
    {
      "bufferView": 4,
      "byteOffset": 64,
      "componentType": 5126,
      "count": 1164,
      "name": "EA03_Items_House_Shelf_01d.002/TEXCOORD_5",
      "type": "VEC2"
    },
    {
      "bufferView": 4,
      "byteOffset": 72,
      "componentType": 5126,
      "count": 1164,
      "name": "EA03_Items_House_Shelf_01d.002/TEXCOORD_6",
      "type": "VEC2"
    },
    {
      "bufferView": 4,
      "byteOffset": 80,
      "componentType": 5126,
      "count": 1164,
      "name": "EA03_Items_House_Shelf_01d.002/COLOR_0",
      "type": "VEC4"
    },
    {
      "bufferView": 4,
      "byteOffset": 96,
      "componentType": 5126,
      "count": 1164,
      "name": "EA03_Items_House_Shelf_01d.002/COLOR_1",
      "type": "VEC4"
    },
    {
      "bufferView": 4,
      "byteOffset": 112,
      "componentType": 5126,
      "count": 1164,
      "name": "EA03_Items_House_Shelf_01d.002/COLOR_2",
      "type": "VEC4"
    },
    {
      "bufferView": 4,
      "byteOffset": 128,
      "componentType": 5126,
      "count": 1164,
      "name": "EA03_Items_House_Shelf_01d.002/COLOR_3",
      "type": "VEC4"
    },
    {
      "bufferView": 5,
      "componentType": 5125,
      "count": 1692,
      "name": "EA03_Items_House_Shelf_01d.002/INDICES",
      "type": "SCALAR"
    }
  ],
  "asset": {
    "copyright": "Copyright (c) 2018-2020 Chukong Technologies Inc.",
    "generator": "FBX-glTF-conv",
    "version": "2.0"
  },
  "bufferViews": [
    {
      "buffer": 0,
      "byteLength": 76896,
      "byteStride": 144,
      "name": "EA03_Items_House_Shelf_01d.005",
      "target": 34962
    },
    {
      "buffer": 0,
      "byteLength": 2616,
      "byteOffset": 76896
    },
    {
      "buffer": 0,
      "byteLength": 124704,
      "byteOffset": 79512,
      "byteStride": 144,
      "name": "EA03_Items_House_Shelf_01d.006",
      "target": 34962
    },
    {
      "buffer": 0,
      "byteLength": 4680,
      "byteOffset": 204216
    },
    {
      "buffer": 0,
      "byteLength": 167616,
      "byteOffset": 208896,
      "byteStride": 144,
      "name": "EA03_Items_House_Shelf_01d.002",
      "target": 34962
    },
    {
      "buffer": 0,
      "byteLength": 6768,
      "byteOffset": 376512
    }
  ],
  "buffers": [
    {
      "byteLength": 383280,
      "uri": "out.bin"
    }
  ],
  "materials": [
    {
      "name": "LPNP_Field_Colorsheet",
      "pbrMetallicRoughness": {
        "baseColorFactor": [
          0.800000011920929,
          0.800000011920929,
          0.800000011920929,
          1.0
        ],
        "metallicFactor": 0.4000000059604645,
        "roughnessFactor": 0.30151134729385376
      }
    }
  ],
  "meshes": [
    {
      "name": "EA03_Items_House_Shelf_01d.005",
      "primitives": [
        {
          "attributes": {
            "COLOR_0": 9,
            "COLOR_1": 10,
            "COLOR_2": 11,
            "COLOR_3": 12,
            "NORMAL": 1,
            "POSITION": 0,
            "TEXCOORD_0": 2,
            "TEXCOORD_1": 3,
            "TEXCOORD_2": 4,
            "TEXCOORD_3": 5,
            "TEXCOORD_4": 6,
            "TEXCOORD_5": 7,
            "TEXCOORD_6": 8
          },
          "indices": 13,
          "material": 0
        }
      ]
    },
    {
      "name": "EA03_Items_House_Shelf_01d.006",
      "primitives": [
        {
          "attributes": {
            "COLOR_0": 23,
            "COLOR_1": 24,
            "COLOR_2": 25,
            "COLOR_3": 26,
            "NORMAL": 15,
            "POSITION": 14,
            "TEXCOORD_0": 16,
            "TEXCOORD_1": 17,
            "TEXCOORD_2": 18,
            "TEXCOORD_3": 19,
            "TEXCOORD_4": 20,
            "TEXCOORD_5": 21,
            "TEXCOORD_6": 22
          },
          "indices": 27,
          "material": 0
        }
      ]
    },
    {
      "name": "EA03_Items_House_Shelf_01d.002",
      "primitives": [
        {
          "attributes": {
            "COLOR_0": 37,
            "COLOR_1": 38,
            "COLOR_2": 39,
            "COLOR_3": 40,
            "NORMAL": 29,
            "POSITION": 28,
            "TEXCOORD_0": 30,
            "TEXCOORD_1": 31,
            "TEXCOORD_2": 32,
            "TEXCOORD_3": 33,
            "TEXCOORD_4": 34,
            "TEXCOORD_5": 35,
            "TEXCOORD_6": 36
          },
          "indices": 41,
          "material": 0
        }
      ]
    }
  ],
  "nodes": [
    {
      "mesh": 0,
      "name": "EA03_Prop_House_Shelf_01g_LOD2"
    },
    {
      "mesh": 1,
      "name": "EA03_Prop_House_Shelf_01g_LOD1"
    },
    {
      "mesh": 2,
      "name": "EA03_Prop_House_Shelf_01g_LOD0"
    }
  ],
  "scenes": [
    {
      "name": "Scene",
      "nodes": [
        0,
        1,
        2
      ]
    }
  ]
}