{
  "accessors": [
    {
      "bufferView": 0,
      "componentType": 5126,
      "count": 1260,
      "max": [
        0.26500004529953003,
        0.2650001049041748,
        0.5200000405311584
      ],
      "min": [
        -0.26500236988067627,
        -0.26500004529953003,
        8.754432201385498e-08
      ],
      "name": "Crate-04_case/POSITION",
      "type": "VEC3"
    },
    {
      "bufferView": 0,
      "byteOffset": 12,
      "componentType": 5126,
      "count": 1260,
      "name": "Crate-04_case/NORMAL",
      "type": "VEC3"
    },
    {
      "bufferView": 0,
      "byteOffset": 24,
      "componentType": 5126,
      "count": 1260,
      "name": "Crate-04_case/TEXCOORD_0",
      "type": "VEC2"
    },
    {
      "bufferView": 0,
      "byteOffset": 32,
      "componentType": 5126,
      "count": 1260,
      "name": "Crate-04_case/TEXCOORD_1",
      "type": "VEC2"
    },
    {
      "bufferView": 1,
      "componentType": 5125,
      "count": 1920,
      "name": "Crate-04_case/INDICES",
      "type": "SCALAR"
    },
    {
      "bufferView": 2,
      "componentType": 5126,
      "count": 252,
      "max": [
        0.26500001549720764,
        0.26499995589256287,
        0.5300000309944153
      ],
      "min": [
        -0.26499998569488525,
        -0.26500004529953003,
        0.5099999904632568
      ],
      "name": "Crate-04_cover/POSITION",
      "type": "VEC3"
    },
    {
      "bufferView": 2,
      "byteOffset": 12,
      "componentType": 5126,
      "count": 252,
      "name": "Crate-04_cover/NORMAL",
      "type": "VEC3"
    },
    {
      "bufferView": 2,
      "byteOffset": 24,
      "componentType": 5126,
      "count": 252,
      "name": "Crate-04_cover/TEXCOORD_0",
      "type": "VEC2"
    },
    {
      "bufferView": 2,
      "byteOffset": 32,
      "componentType": 5126,
      "count": 252,
      "name": "Crate-04_cover/TEXCOORD_1",
      "type": "VEC2"
    },
    {
      "bufferView": 3,
      "componentType": 5125,
      "count": 384,
      "name": "Crate-04_cover/INDICES",
      "type": "SCALAR"
    }
  ],
  "asset": {
    "copyright": "Copyright (c) 2018-2020 Chukong Technologies Inc.",
    "generator": "FBX-glTF-conv",
    "version": "2.0"
  },
  "bufferViews": [
    {
      "buffer": 0,
      "byteLength": 50400,
      "byteStride": 40,
      "name": "Crate-04_case",
      "target": 34962
    },
    {
      "buffer": 0,
      "byteLength": 7680,
      "byteOffset": 50400
    },
    {
      "buffer": 0,
      "byteLength": 10080,
      "byteOffset": 58080,
      "byteStride": 40,
      "name": "Crate-04_cover",
      "target": 34962
    },
    {
      "buffer": 0,
      "byteLength": 1536,
      "byteOffset": 68160
    }
  ],
  "buffers": [
    {
      "byteLength": 69696,
      "uri": "out.bin"
    }
  ],
  "images": [
    {
      "extras": {
        "FBX-glTF-conv": {
          "fileName": "D:\\Office\\Sumo\\assets\\Free Wooden Crates\\diffuse.tga",
          "relativeFileName": "diffuse.tga"
        }
      },
      "name": "Map #1",
      "uri": "data:image/png;base64,"
    }
  ],
  "materials": [
    {
      "name": "01 - Default",
      "pbrMetallicRoughness": {
        "baseColorTexture": {
          "index": 0
        },
        "metallicFactor": 0.4000000059604645,
        "roughnessFactor": 0.7071067690849304
      }
    }
  ],
  "meshes": [
    {
      "name": "Crate-04_case",
      "primitives": [
        {
          "attributes": {
            "NORMAL": 1,
            "POSITION": 0,
            "TEXCOORD_0": 2,
            "TEXCOORD_1": 3
          },
          "indices": 4,
          "material": 0
        }
      ]
    },
    {
      "name": "Crate-04_cover",
      "primitives": [
        {
          "attributes": {
            "NORMAL": 6,
            "POSITION": 5,
            "TEXCOORD_0": 7,
            "TEXCOORD_1": 8
          },
          "indices": 9,
          "material": 0
        }
      ]
    }
  ],
  "nodes": [
    {
      "mesh": 0,
      "name": "Crate-04_case",
      "rotation": [
        -0.7071068286895752,
        6.181723932741079e-08,
        2.7021174756953386e-15,
        0.7071067690849304
      ]
    },
    {
      "mesh": 1,
      "name": "Crate-04_cover",
      "rotation": [
        -0.7071067690849304,
        -0.0,
        0.0,
        0.7071067690849304
      ]
    }
  ],
  "samplers": [
    {}
  ],
  "scenes": [
    {
      "nodes": [
        0,
        1
      ]
    }
  ],
  "textures": [
    {
      "name": "Map #1",
      "sampler": 0,
      "source": 0
    }
  ]
}